<mxfile host="app.diagrams.net" modified="2023-11-24T07:51:47.500Z" agent="Mozilla/5.0 (Windows NT 10.0; Win64; x64; rv:120.0) Gecko/20100101 Firefox/120.0" etag="_hZUHcg5LEwRQURRlqJa" version="22.1.3" type="github">
  <diagram name="Seite-1" id="8oX-7nu69xEVpHodJw5y">
    <mxGraphModel dx="1434" dy="746" grid="1" gridSize="10" guides="1" tooltips="1" connect="1" arrows="1" fold="1" page="1" pageScale="1" pageWidth="1100" pageHeight="850" math="0" shadow="0">
      <root>
        <mxCell id="0" />
        <mxCell id="1" parent="0" />
        <mxCell id="xWyKYA-3_11842NbvKt_-10" value="Benutzerdefinierte Geodaten" style="shape=cylinder3;whiteSpace=wrap;html=1;boundedLbl=1;backgroundOutline=1;size=15;" vertex="1" parent="1">
          <mxGeometry x="600" y="305" width="140" height="70" as="geometry" />
        </mxCell>
        <mxCell id="xWyKYA-3_11842NbvKt_-12" style="edgeStyle=orthogonalEdgeStyle;rounded=0;orthogonalLoop=1;jettySize=auto;html=1;exitX=1;exitY=0.5;exitDx=0;exitDy=0;entryX=0;entryY=0.25;entryDx=0;entryDy=0;startArrow=classic;startFill=1;" edge="1" parent="1" source="xWyKYA-3_11842NbvKt_-1" target="xWyKYA-3_11842NbvKt_-5">
          <mxGeometry relative="1" as="geometry" />
        </mxCell>
        <mxCell id="xWyKYA-3_11842NbvKt_-1" value="SoRa Private API" style="rounded=0;whiteSpace=wrap;html=1;" vertex="1" parent="1">
          <mxGeometry x="120" y="200" width="120" height="40" as="geometry" />
        </mxCell>
        <mxCell id="xWyKYA-3_11842NbvKt_-14" style="edgeStyle=orthogonalEdgeStyle;rounded=0;orthogonalLoop=1;jettySize=auto;html=1;exitX=1;exitY=0.5;exitDx=0;exitDy=0;entryX=0;entryY=0.5;entryDx=0;entryDy=0;startArrow=classic;startFill=1;" edge="1" parent="1" source="xWyKYA-3_11842NbvKt_-2" target="xWyKYA-3_11842NbvKt_-5">
          <mxGeometry relative="1" as="geometry" />
        </mxCell>
        <mxCell id="xWyKYA-3_11842NbvKt_-2" value="SoRa Public API" style="rounded=0;whiteSpace=wrap;html=1;" vertex="1" parent="1">
          <mxGeometry x="120" y="260" width="120" height="40" as="geometry" />
        </mxCell>
        <mxCell id="xWyKYA-3_11842NbvKt_-3" value="IÖR Monitor DataPicker" style="rounded=0;whiteSpace=wrap;html=1;" vertex="1" parent="1">
          <mxGeometry x="120" y="320" width="120" height="40" as="geometry" />
        </mxCell>
        <mxCell id="xWyKYA-3_11842NbvKt_-4" value="Open Route Service API" style="rounded=0;whiteSpace=wrap;html=1;" vertex="1" parent="1">
          <mxGeometry x="280" y="385" width="120" height="40" as="geometry" />
        </mxCell>
        <mxCell id="xWyKYA-3_11842NbvKt_-5" value="Geolinking REST API (Flask)" style="rounded=0;whiteSpace=wrap;html=1;" vertex="1" parent="1">
          <mxGeometry x="280" y="260" width="120" height="40" as="geometry" />
        </mxCell>
        <mxCell id="xWyKYA-3_11842NbvKt_-7" value="Geolinking WPS" style="rounded=0;whiteSpace=wrap;html=1;" vertex="1" parent="1">
          <mxGeometry x="440" y="260" width="120" height="40" as="geometry" />
        </mxCell>
        <mxCell id="xWyKYA-3_11842NbvKt_-9" value="Geobasis- / Geofachdaten" style="shape=cylinder3;whiteSpace=wrap;html=1;boundedLbl=1;backgroundOutline=1;size=15;" vertex="1" parent="1">
          <mxGeometry x="600" y="245" width="140" height="70" as="geometry" />
        </mxCell>
        <mxCell id="xWyKYA-3_11842NbvKt_-8" value="IÖR Monitor" style="shape=cylinder3;whiteSpace=wrap;html=1;boundedLbl=1;backgroundOutline=1;size=15;" vertex="1" parent="1">
          <mxGeometry x="600" y="185" width="140" height="70" as="geometry" />
        </mxCell>
      </root>
    </mxGraphModel>
  </diagram>
</mxfile>
